<svg xmlns="http://www.w3.org/2000/svg" width="165" height="32" viewBox="0 0 165 32">
    <g fill="none" fill-rule="evenodd">
        <g fill="#FFF" fill-rule="nonzero">
            <g>
                <g>
                    <g>
                        <g>
                            <path d="M50.022 23.624c1.022 0 2.016-.21 2.982-.63.966-.42 1.764-1.071 2.394-1.953l-2.73-2.037c-.336.504-.763.896-1.281 1.176-.518.28-1.113.42-1.785.42-.588 0-1.137-.119-1.648-.357-.511-.238-.956-.57-1.334-.997-.378-.427-.675-.931-.892-1.512-.218-.582-.326-1.222-.326-1.922 0-.686.108-1.323.325-1.911.218-.588.519-1.095.904-1.522.385-.428.84-.76 1.364-.998.526-.238 1.096-.357 1.712-.357.616 0 1.158.105 1.627.315.47.21.865.511 1.187.903l2.52-2.058c-.322-.406-.686-.749-1.092-1.029-.406-.28-.83-.504-1.27-.672-.442-.168-.89-.29-1.345-.367C50.88 8.039 50.442 8 50.023 8c-1.162 0-2.233.182-3.213.546-.98.364-1.827.886-2.541 1.565-.714.678-1.27 1.501-1.67 2.467-.398.966-.598 2.044-.598 3.234s.2 2.268.599 3.234c.399.966.955 1.788 1.669 2.468.714.678 1.561 1.2 2.541 1.564.98.364 2.051.546 3.213.546zm14.259-.378l6.132-14.868h-3.507l-3.738 9.744h-.042l-3.675-9.744h-3.738l5.943 14.868h2.625z" transform="translate(-203 -2812) translate(0 2775) translate(201.5 36.484) translate(.1 .536) translate(.714 .254)"/>
                            <g>
                                <path d="M13.48 26.531v2.419h-2.984c-.453 0-.821.368-.821.821 0 .454.368.821.82.821H23.9c.453 0 .821-.367.821-.82 0-.454-.368-.822-.82-.822h-2.985V26.53H13.48zM.306 23.671c0 .913.74 1.652 1.652 1.652h30.479c.913 0 1.652-.739 1.652-1.652v-3.4H.306v3.4zM32.437.17c.913 0 1.652.74 1.652 1.652v17.062H.306V1.822C.306.91 1.046.17 1.958.17zM10.449 10.906c-2.177 0-4.717.725-4.717 3.628h9.434l-.006-.23c-.131-2.711-2.593-3.398-4.711-3.398zm17.99 2.54H17.741c-.3 0-.545.243-.545.544 0 .3.244.544.545.544h10.696c.3 0 .544-.244.544-.544 0-.3-.243-.544-.544-.544zm0-3.458H17.741c-.3 0-.545.244-.545.544 0 .301.244.545.545.545h10.696c.3 0 .544-.244.544-.545 0-.3-.243-.544-.544-.544zm-17.99-4.162c-1.202 0-2.177.975-2.177 2.177 0 1.203.975 2.177 2.177 2.177s2.177-.974 2.177-2.177c0-1.202-.975-2.177-2.177-2.177zm15.077.705h-7.784c-.3 0-.545.243-.545.544 0 .3.244.544.545.544h7.784c.3 0 .544-.243.544-.544 0-.3-.244-.544-.544-.544z" transform="translate(-203 -2812) translate(0 2775) translate(201.5 36.484) translate(.1 .536) translate(.714 .254) translate(.686 .51)"/>
                            </g>
                            <path d="M83.572 23.246v-3.024h-7.203v-3.024h6.447v-3.024h-6.447v-2.772h6.825V8.378H73.093v14.868h10.479zm5.901 0V12.662h.042l6.489 10.584h4.284V8.378h-3.276V18.71h-.042L90.649 8.378h-4.452v14.868h3.276zm23.31 0v-3.024h-6.069V8.378h-3.276v14.868h9.345zm5.04 0V8.378h-3.276v14.868h3.276zm10.206.378c1.092 0 2.163-.112 3.213-.336 1.05-.224 2.058-.588 3.024-1.092v-7.77h-5.817v3.024h2.667v2.415c-.308.168-.721.333-1.239.494-.518.16-1.134.241-1.848.241-.7 0-1.334-.119-1.9-.357-.568-.238-1.054-.57-1.46-.997-.406-.427-.718-.931-.934-1.512-.218-.582-.326-1.222-.326-1.922 0-.686.108-1.323.325-1.911.218-.588.529-1.095.935-1.522.406-.428.892-.76 1.46-.998.566-.238 1.2-.357 1.9-.357.84 0 1.54.119 2.1.357s1.064.588 1.512 1.05l2.31-2.52c-.756-.7-1.635-1.194-2.636-1.48-1-.287-2.096-.431-3.286-.431-1.162 0-2.233.182-3.213.546-.98.364-1.827.886-2.541 1.565-.714.678-1.27 1.501-1.67 2.467-.398.966-.598 2.044-.598 3.234s.2 2.268.599 3.234c.398.966.955 1.788 1.669 2.468.714.678 1.561 1.2 2.541 1.564.98.364 2.051.546 3.213.546zm12.39-.378V12.662h.042l6.489 10.584h4.284V8.378h-3.276V18.71h-.042l-6.321-10.332h-4.452v14.868h3.276zm24.444 0v-3.024h-7.203v-3.024h6.447v-3.024h-6.447v-2.772h6.825V8.378h-10.101v14.868h10.479z" transform="translate(-203 -2812) translate(0 2775) translate(201.5 36.484) translate(.1 .536) translate(.714 .254)"/>
                        </g>
                    </g>
                </g>
            </g>
        </g>
    </g>
</svg>
