<svg xmlns="http://www.w3.org/2000/svg" width="166" height="46" viewBox="0 0 166 46">
    <g fill="none" fill-rule="evenodd">
        <g fill-rule="nonzero">
            <g>
                <g>
                    <g>
                        <path fill="#4372FF" d="M8.022 15.624c1.022 0 2.016-.21 2.982-.63.966-.42 1.764-1.071 2.394-1.953l-2.73-2.037c-.336.504-.763.896-1.281 1.176-.518.28-1.113.42-1.785.42-.588 0-1.138-.119-1.649-.357-.51-.238-.955-.57-1.333-.998-.378-.426-.675-.93-.893-1.511-.216-.582-.325-1.222-.325-1.922 0-.686.108-1.323.325-1.911.218-.588.518-1.095.903-1.522.386-.427.84-.76 1.365-.998.526-.238 1.096-.357 1.712-.357.616 0 1.159.105 1.628.315.468.21.864.511 1.186.903l2.52-2.058c-.322-.406-.686-.749-1.092-1.029-.406-.28-.83-.504-1.27-.672-.441-.168-.89-.29-1.345-.367C8.88.038 8.443 0 8.023 0 6.86 0 5.789.182 4.809.546c-.98.364-1.827.885-2.541 1.565-.714.678-1.27 1.501-1.67 2.467C.2 5.544 0 6.622 0 7.812s.2 2.268.599 3.234c.399.966.955 1.789 1.669 2.468.714.679 1.561 1.2 2.541 1.564.98.364 2.051.546 3.213.546zm14.259-.378L28.413.378h-3.507l-3.738 9.744h-.042L17.451.378h-3.738l5.943 14.868h2.625z" transform="translate(-168 -26) translate(168.9 26.464) translate(40.1 11.536) translate(.714 .254)"/>
                        <path fill="#464646" d="M41.572 15.246v-3.024h-7.203V9.198h6.447V6.174h-6.447V3.402h6.825V.378H31.093v14.868h10.479zm5.901 0V4.662h.042l6.489 10.584h4.284V.378h-3.276V10.71h-.042L48.649.378h-4.452v14.868h3.276zm23.31 0v-3.024h-6.069V.378h-3.276v14.868h9.345zm5.04 0V.378h-3.276v14.868h3.276zm10.206.378c1.092 0 2.163-.112 3.213-.336 1.05-.224 2.058-.588 3.024-1.092v-7.77h-5.817V9.45h2.667v2.415c-.308.168-.721.332-1.239.493-.518.162-1.134.242-1.848.242-.7 0-1.334-.119-1.9-.357-.568-.238-1.054-.57-1.46-.998-.406-.426-.718-.93-.934-1.511-.218-.582-.326-1.222-.326-1.922 0-.686.108-1.323.325-1.911.218-.588.529-1.095.935-1.522.406-.427.892-.76 1.46-.998.566-.238 1.2-.357 1.9-.357.84 0 1.54.119 2.1.357s1.064.588 1.512 1.05l2.31-2.52c-.756-.7-1.634-1.194-2.635-1.48C88.314.142 87.219 0 86.028 0c-1.162 0-2.233.182-3.213.546-.98.364-1.827.885-2.541 1.565-.714.678-1.27 1.501-1.67 2.467-.398.966-.598 2.044-.598 3.234s.2 2.268.599 3.234c.398.966.955 1.789 1.669 2.468.714.679 1.561 1.2 2.541 1.564.98.364 2.051.546 3.213.546zm12.39-.378V4.662h.042l6.489 10.584h4.284V.378h-3.276V10.71h-.042L99.595.378h-4.452v14.868h3.276zm24.444 0v-3.024h-7.203V9.198h6.447V6.174h-6.447V3.402h6.825V.378h-10.101v14.868h10.479z" transform="translate(-168 -26) translate(168.9 26.464) translate(40.1 11.536) translate(.714 .254)"/>
                    </g>
                </g>
                <g fill="#4372FF">
                    <g>
                        <path d="M10.868 10.188L1.244.564C1.105.426.9.384.72.46.54.534.422.71.422.904V14.23c0 .183.105.352.27.432.166.08.363.06.507-.053l2.443-1.91 2.133 3.838c.089.157.252.247.422.247.072 0 .146-.016.215-.051L9.3 15.289c.118-.058.206-.162.245-.288.038-.125.024-.26-.039-.376l-2.01-3.616h3.032c.195 0 .37-.117.445-.297.074-.18.033-.386-.104-.524z" transform="translate(-168 -26) translate(168.9 26.464) translate(19.342 27.462)"/>
                    </g>
                    <path d="M23.092 0c1.403 0 2.566 1.163 2.566 2.566l-.001 27.236-2.199-2.199V2.566c0-.195-.11-.33-.286-.36l-.08-.007H2.566c-.222 0-.367.145-.367.367v29.323c0 .222.145.367.367.367l15.283-.001-.12 2.199H2.566c-1.349 0-2.476-1.075-2.56-2.404L0 31.89V2.565C0 1.163 1.163 0 2.566 0zM20.16 26.391c.116 0 .228.018.333.051-1.134.2-2.062 1.038-2.371 2.148H5.498c-.607 0-1.1-.492-1.1-1.1 0-.607.493-1.099 1.1-1.099zm0-4.399c.607 0 1.1.493 1.1 1.1 0 .607-.493 1.1-1.1 1.1H5.498c-.607 0-1.1-.493-1.1-1.1 0-.607.493-1.1 1.1-1.1zm0-4.398c.607 0 1.1.492 1.1 1.1 0 .607-.493 1.1-1.1 1.1H5.498c-.607 0-1.1-.493-1.1-1.1 0-.608.493-1.1 1.1-1.1zm-7.331-5.865c2.2 0 4.765.733 4.765 3.666h-9.53c0-2.933 2.566-3.666 4.765-3.666zm0-5.131c1.215 0 2.2.984 2.2 2.199 0 1.215-.985 2.2-2.2 2.2-1.215 0-2.2-.985-2.2-2.2 0-1.215.985-2.2 2.2-2.2z" transform="translate(-168 -26) translate(168.9 26.464)"/>
                </g>
            </g>
        </g>
    </g>
</svg>
